<?xml version="1.0" encoding="utf-8"?>
<!-- Generator: Adobe Illustrator 24.0.2, SVG Export Plug-In . SVG Version: 6.00 Build 0)  -->
<svg version="1.1" id="Layer_1" xmlns="http://www.w3.org/2000/svg" xmlns:xlink="http://www.w3.org/1999/xlink" x="0px" y="0px"
	 viewBox="0 0 1200 800" style="enable-background:new 0 0 1200 800;" xml:space="preserve">
<style type="text/css">
	.st0{fill:#29A9E1;}
	.st1{fill:#808080;}
</style>
<g>
	<path class="st0" d="M601.41,543.67c-4.56,0.82-8.65,3.13-12.24,5.97C593.67,548.69,598.01,546.83,601.41,543.67z"/>
	<path class="st0" d="M464.89,547.27c4.22,3.53,9.45,5.39,14.92,5.77C476.16,548.54,470.21,548.03,464.89,547.27z"/>
	<path class="st0" d="M572.1,553.15c5.46-0.37,10.82-2.06,14.88-5.84C581.65,548.14,575.88,548.8,572.1,553.15z"/>
	<path class="st0" d="M495.05,557.89c3.36,2.2,7.48,2.16,11.33,2.19C502.89,558.23,498.94,557.66,495.05,557.89z"/>
	<path class="st0" d="M546.54,560.06c3.65,0.06,7.31-0.44,10.83-1.45C553.71,557.37,549.73,557.89,546.54,560.06z"/>
	<path class="st0" d="M568.52,550.61c-5.85,1.37-13.88-0.9-17.41,5.19C557.09,555.12,564.4,556.01,568.52,550.61z"/>
	<path class="st0" d="M501.33,555.75c-3.82-6.04-11.98-3.79-17.94-5.11C487.94,555.8,495.09,555.24,501.33,555.75z"/>
	<path class="st0" d="M521.78,556.65l0.93-0.01c-0.14-0.79-0.41-2.38-0.54-3.19c-5.42-0.2-10.82-0.47-16.22-0.49
		c1.55,2.62,4.03,4.22,7.19,3.64C516.03,556.68,518.9,556.68,521.78,556.65z"/>
	<path class="st0" d="M529.89,556.8c3.41-0.07,6.83-0.13,10.24-0.25c0.96-0.04,2.86-0.11,3.82-0.16c0.61-1.18,1.21-2.37,1.83-3.53
		c-5.09,0.23-10.2,0.42-15.31,0.41C530.34,554.17,530.05,555.93,529.89,556.8z"/>
	<path class="st0" d="M480.18,555.76c1.11,2,5.09,2.79,7.34,2.07C486.97,555.29,482.33,554.65,480.18,555.76z"/>
	<path class="st0" d="M581.86,554.27c1.83,0.77,4.96-0.83,6.1-2.51C586.23,550.32,582.72,552.36,581.86,554.27z"/>
	<path class="st0" d="M567.26,555.72c-0.9,0.04-4.25,1.66-2.02,2.43c2.27,0.11,4.92-0.41,6.6-2.02
		C571.28,554.43,568.5,555.51,567.26,555.72z"/>
	<path class="st0" d="M513.12,560.3c2.85,1.31,6.71,1.4,9.63,0.18c-0.16-0.23-0.47-0.69-0.62-0.92
		C519.1,559.27,515.97,559.15,513.12,560.3z"/>
	<path class="st0" d="M530.25,559.78c1.31,2.31,8.04,2.13,9.47-0.21C536.55,559.27,533.38,559.34,530.25,559.78z"/>
	<g>
		<path class="st1" d="M618.31,235.28c5.18-0.75,5.94-7,9.16-10.28c-1.66,4.23-3.78,8.25-5.57,12.43
			c5.29,0.35,10.33-1.71,15.59-1.93c-4.68,1.35-9.47,2.5-13.87,4.63c1.61,4.23,7.65,4.9,11.1,7.49c-4.39-1.13-8.53-3-12.88-4.26
			c0.51,4.58,1.86,9.01,2.76,13.53c-1.78-3.71-2.91-7.69-4.73-11.37c-0.51-0.11-1.5-0.32-1.99-0.44c-3.22,4.43-5.46,9.47-8.48,14.02
			c2.29-5.47,5.29-10.68,6.69-16.5c-4.4,0.72-8.75,1.81-13.2,2.17c4.13-1.71,8.89-2.2,12.34-5.28c-4.33-2.98-8.96-5.5-13.3-8.44
			c4.98,2.1,9.69,4.82,14.9,6.39c-0.68-3.85-1.52-7.7-1.5-11.64C616.47,228.92,617.37,232.11,618.31,235.28z"/>
		<path class="st0" d="M620.2,332.97c5.01,0.23,10.02,0.48,15.04,0.76c-3.65,11.36-7.87,22.57-13.06,33.32
			C621.29,355.71,621.22,344.31,620.2,332.97z"/>
		<path class="st0" d="M682.75,338.32c3.7,0.49,7.42,0.99,11.13,1.51c1.47,10.34,2.36,20.77,2.71,31.22
			c-3.77-0.06-7.55-0.11-11.31-0.18C684.87,359.99,683.85,349.14,682.75,338.32z"/>
		<path class="st0" d="M685.43,379.6c3.71-0.01,7.43-0.07,11.16-0.14c-0.21,10.68-1.41,21.3-2.81,31.88
			c-3.72,0.54-7.46,1.03-11.17,1.55C683.73,401.8,684.81,390.71,685.43,379.6z"/>
		<path class="st0" d="M636.5,493.97c4.92-1.31,9.86-2.61,14.84-3.77c-3.48,5.91-7.14,11.74-11.12,17.34
			c-4.36,1.16-8.7,2.41-13.06,3.6C630.16,505.36,633.45,499.73,636.5,493.97z"/>
		<path class="st0" d="M447.38,499.38c9.59,1,19.2,1.99,28.81,2.81c0.96,4.22,1.9,8.42,2.82,12.65c-7.74,3.48-16.25,3.95-24.46,1.99
			C452.05,511.06,449.6,505.26,447.38,499.38z"/>
		<path class="st0" d="M564.96,526.84c8.08-0.65,16.11-1.86,24.19-2.53c-2.12,3.5-4.22,6.98-6.29,10.5
			c-7.17,1.03-14.35,1.85-21.54,2.51C562.54,533.82,563.75,530.33,564.96,526.84z"/>
		<path class="st0" d="M663.98,370.61c4.64-9.76,9.11-19.59,13.34-29.54c0.97,9.86,1.83,19.74,2.14,29.64
			C674.3,370.72,669.14,370.72,663.98,370.61z"/>
		<path class="st0" d="M597.65,522.72c5.78-0.92,11.54-2.09,17.28-3.24c-2.65,3.78-5.54,7.38-8.49,10.93
			c-5.15,1.11-10.33,2.13-15.49,3.12C593.09,529.87,595.32,526.26,597.65,522.72z"/>
		<path class="st0" d="M698.31,340.79c2.17,0.47,4.37,0.93,6.57,1.4c1.17,9.68,2.26,19.38,2.58,29.13
			c-2.24-0.08-4.46-0.16-6.67-0.23C700.46,360.95,699.44,350.86,698.31,340.79z"/>
		<path class="st0" d="M707.88,342.42c2.5,2.05,2.3,5.36,2.69,8.27c0.61,7.24,1.74,14.49,1.17,21.78c-2.27-1.86-1.74-4.97-2.07-7.53
			C709.25,357.42,708.15,349.94,707.88,342.42z"/>
		<path class="st0" d="M709.61,386.04c0.34-2.74-0.28-6.14,2.38-7.91c0.04,7.39-0.79,14.76-1.5,22.11
			c-0.42,2.96-0.27,6.35-2.76,8.51C708.06,401.14,709.29,393.63,709.61,386.04z"/>
		<path class="st0" d="M699.64,440.55c2.61-8.86,3.77-18.4,8.03-26.63c-0.1,5.57-2.06,10.85-3.48,16.19
			C703.05,433.72,702.45,437.76,699.64,440.55z"/>
		<path class="st0" d="M687.94,468.43c2.61-7.72,5.84-15.46,10.31-22.27C695.94,453.99,692.2,461.46,687.94,468.43z"/>
		<path class="st0" d="M661.65,498.9c5.47-6.76,8.18-16.6,16.87-20.03C673.72,486.09,670.04,495.17,661.65,498.9z"/>
		<path class="st0" d="M647.05,516.35c3.84-5.26,7.96-10.83,14.09-13.53C656.98,507.81,652.79,513.06,647.05,516.35z"/>
		<path class="st0" d="M632.91,522.61c4.47-5.98,9.18-12.87,17.17-14.08C645.19,514.12,640.49,520.62,632.91,522.61z"/>
		<path class="st0" d="M618.61,535.71c3.55-4.37,8.11-7.96,13.5-9.76C628.33,530.09,623.76,533.49,618.61,535.71z"/>
		<path class="st0" d="M601.81,540.78c4.13-5.45,10.19-8.77,16.96-9.66C614.18,535.94,608.51,539.76,601.81,540.78z"/>
		<path class="st0" d="M576.12,379.47c12.39,0.07,24.77-0.16,37.16-0.06c-0.23,3.03-0.1,6.28-1.85,8.93
			c-5.67,10.1-11.92,19.88-18.49,29.41c-5.97,0.18-11.93,0.34-17.89,0.54C575.5,405.35,575.95,392.42,576.12,379.47z"/>
		<path class="st0" d="M661.09,379.93c6.11-0.08,12.23-0.14,18.35-0.16c-0.28,11.38-1.27,22.74-2.81,34.03
			c-5.97,0.55-11.93,1.07-17.89,1.58C659.76,403.59,660.79,391.78,661.09,379.93z"/>
		<path class="st0" d="M629.46,426.51c6.83-0.28,13.64-0.86,20.47-1.35c-1.58,9.99-3.82,19.86-6.05,29.72
			c-8.07,1.23-16.18,2.13-24.31,2.86c1.34-7.01,2.3-14.08,3.51-21.12C623.72,432.51,626.96,429.6,629.46,426.51z"/>
		<path class="st0" d="M526.27,428.87c12.81-0.1,25.63-0.41,38.45-0.37c-0.82,7.93-1.2,15.9-1.88,23.84
			c-0.03,3.48-2.82,6.6-5.85,7.9c-10.26,0.65-20.54,0.76-30.81,0.89C526.17,450.37,526.07,439.62,526.27,428.87z"/>
		<path class="st0" d="M617.64,466.56c7.87-1.07,15.74-2.12,23.66-2.91c-2.75,8.22-5.61,16.42-8.89,24.45
			c-7.18,1.28-14.37,2.48-21.6,3.46C613.18,483.25,615.58,474.96,617.64,466.56z"/>
		<path class="st0" d="M590.45,471.67c4.51-5.32,12.33-2.93,18.4-4.36c-1.75,8.63-4.08,17.14-6.81,25.52
			c-9.97,0.8-19.92,2.06-29.91,2.48c0.92-3.05,0.35-6.95,3.05-9.17C580.34,481.39,585.47,476.62,590.45,471.67z"/>
		<path class="st0" d="M480.58,469.4c11.79,0.45,23.61,0.25,35.38,0.93c0.49,8.52,0.21,17.07,0.17,25.59
			c-10.65-0.11-21.3-0.42-31.94-0.78C482.68,486.59,481.69,477.99,480.58,469.4z"/>
		<path class="st0" d="M608.02,499.25c6.88-1.26,13.77-2.67,20.77-3.24c-3,5.83-6.15,11.6-9.59,17.17
			c-6.15,1.03-12.27,2.27-18.4,3.4C603.26,510.82,605.77,505.09,608.02,499.25z"/>
		<path class="st0" d="M550.94,505.53c2.98-2.27,6.91-1.54,10.41-1.89c-0.73,5.94-2.14,11.75-3.48,17.56
			c-9.16,0.58-18.32,0.83-27.49,0.9c-0.14-4.16,3.99-5.52,6.83-7.45C541.95,511.87,546.37,508.59,550.94,505.53z"/>
		<path class="st0" d="M498.11,533.78c7.73-2.69,15.25-7.01,23.76-5.49c0.04,3.51,0.1,7.04,0.16,10.57
			c-7.58-0.14-15.15-0.52-22.71-0.89C498.9,536.56,498.51,535.18,498.11,533.78z"/>
		<path class="st0" d="M700.87,379.4c2.17-0.07,4.36-0.16,6.55-0.23c-0.23,9.95-1.51,19.82-2.58,29.69
			c-2.23,0.54-4.47,1.06-6.69,1.59C699.43,400.15,700.34,389.78,700.87,379.4z"/>
		<path class="st0" d="M636.1,416.92c6.01-8.48,11.09-17.58,17.08-26.07c-0.34,8.44-1.07,16.87-2.07,25.25
			C646.1,416.34,641.1,416.65,636.1,416.92z"/>
		<path class="st0" d="M671.69,457.25c3.53-1,7.03-2.03,10.57-3.05c-3.43,7.59-6.32,15.5-10.65,22.64c-2.92,2.09-6.6,2.68-9.92,3.87
			C665.22,472.98,668.51,465.14,671.69,457.25z"/>
		<path class="st0" d="M696.58,418.52c2.2-0.68,4.39-1.37,6.62-2.03c-1.74,8.68-4.29,17.17-6.98,25.59
			c-2.17,0.93-4.33,1.86-6.47,2.81C692.13,436.12,694.73,427.42,696.58,418.52z"/>
		<path class="st0" d="M681.1,421.49c3.68-0.73,7.36-1.44,11.06-2.17c-1.58,9.2-4.37,18.13-7.03,27.06
			c-3.61,1.04-7.24,2.03-10.86,3.02C676.76,440.14,679.13,430.86,681.1,421.49z"/>
		<path class="st0" d="M526.18,470.08c7.34-0.01,14.66-0.23,21.99-0.25c-7.22,6.52-14.59,12.89-22.33,18.8
			C525.79,482.43,525.66,476.24,526.18,470.08z"/>
		<path class="st0" d="M418.08,494.72c6.97,1.16,13.92,2.38,20.89,3.54c2.36,5.83,4.8,11.64,7.38,17.38
			c-6.21-1.09-12.37-2.37-18.58-3.4C424.15,506.63,421.05,500.7,418.08,494.72z"/>
		<path class="st0" d="M657.38,424.5c5.92-0.78,11.86-1.41,17.79-2.24c-1.72,9.68-4.23,19.2-6.97,28.62
			c-5.66,1.03-11.3,2.05-16.96,2.93C653.48,444.08,655.56,434.32,657.38,424.5z"/>
		<path class="st0" d="M648.78,462.29c5.52-1.18,11.02-2.43,16.63-3.1c-3.03,7.98-6.35,15.86-10.04,23.56
			c-5.13,1.35-10.28,2.64-15.45,3.85C643.07,478.57,645.98,470.44,648.78,462.29z"/>
		<path class="st0" d="M570.77,503.06c9.61-0.72,19.17-1.78,28.76-2.62c-2.17,5.84-4.57,11.6-7.03,17.34
			c-8.56,1.18-17.17,2.02-25.76,2.88C568.12,514.79,569.52,508.94,570.77,503.06z"/>
		<path class="st0" d="M530.6,528.48c8.52-0.4,17.05-0.58,25.6-0.9c-1.07,3.5-2.17,7.01-3.32,10.5c-7.41,0.28-14.8,0.54-22.19,0.93
			C530.58,535.49,530.57,531.98,530.6,528.48z"/>
		<path class="st0" d="M574.43,428.19c3.65-0.21,7.32-0.34,11-0.39c-3.67,5.26-7.74,10.24-11.99,15.05
			C573.67,437.95,574.1,433.07,574.43,428.19z"/>
		<path class="st0" d="M602.43,459.2c3.34-3.88,6.64-7.8,10.3-11.38c-0.56,3.6-1.2,7.18-1.79,10.78
			C608.1,458.8,605.25,459,602.43,459.2z"/>
		<path class="st0" d="M686.89,452.44c2.19-0.99,4.39-1.96,6.59-2.92c-3.03,6.66-5.8,13.46-9.32,19.89c-1.33,3.08-4.7,4.11-7.39,5.6
			C680.2,467.52,683.81,460.1,686.89,452.44z"/>
		<path class="st0" d="M656.06,490.9c2.13-4.25,7.34-4.77,11.3-6.39c-3.09,5.06-6.28,10.09-9.86,14.81
			c-2.27,3.47-6.59,4.25-10.23,5.53C650.24,500.22,653.17,495.57,656.06,490.9z"/>
		<path class="st0" d="M485.39,502.73c5.97,0.16,11.92,0.45,17.89,0.82c-5.23,2.99-10.61,5.73-16.15,8.07
			C486.52,508.66,485.94,505.69,485.39,502.73z"/>
		<path class="st0" d="M622.46,518.01c3.94-2,8.38-2.69,12.6-3.91c-3.1,3.71-6.01,7.7-9.83,10.72c-3.37,1.86-7.25,2.53-10.92,3.6
			C616.99,524.92,619.4,521.18,622.46,518.01z"/>
		<path class="st0" d="M522.25,549.91c-0.04-2.07-0.1-4.13-0.13-6.18c-6.87-0.28-13.73-0.52-20.58-0.75
			c0.79,2.05,1.61,4.11,2.44,6.15C510.06,549.38,516.15,549.64,522.25,549.91z"/>
		<path class="st0" d="M601.06,535.87c-4.73,0.86-9.42,1.89-14.15,2.82c-1.74,2.07-3.44,4.19-5.05,6.38
			c3.89-0.72,7.98-1.03,11.65-2.62C596.39,540.69,598.65,538.15,601.06,535.87z"/>
		<path class="st0" d="M466.34,540.23c-3.77,0-7.52-0.06-11.27,0.01c4.64,3.44,10.47,3.96,16,4.82
			C469.47,543.43,467.92,541.84,466.34,540.23z"/>
		<path class="st0" d="M478.83,546.04c5.53,1.72,11.45,1.57,17.15,2.5c-1.04-2.13-2.07-4.25-3.1-6.35
			c-6.48-0.68-12.92-1.51-19.4-2.14C475.19,542.09,476.8,544.26,478.83,546.04z"/>
		<path class="st0" d="M551.11,543.01c-6.86,0.18-13.71,0.49-20.57,0.65c-0.11,2.07-0.23,4.15-0.31,6.25
			c5.97-0.27,11.93-0.54,17.9-0.68C549.12,547.15,550.12,545.08,551.11,543.01z"/>
		<path class="st0" d="M578.86,540.07c-6.48,0.72-12.94,1.54-19.41,2.19c-1.1,2.1-2.17,4.22-3.26,6.35
			c5.77-0.75,11.55-1.35,17.32-2.14C575.27,544.32,577.07,542.2,578.86,540.07z"/>
		<path class="st0" d="M605.8,544.04c1.83,0.77,4.96-0.83,6.1-2.51C610.16,540.09,606.66,542.13,605.8,544.04z"/>
		<g>
			<circle class="st1" cx="576.14" cy="271.58" r="8.65"/>
			<path class="st1" d="M575.51,290.14c-1.54-5.26-8.08-4.25-11.26-1.21c-9.61,7.73-16.96,17.93-23.5,28.28
				c4.95-3.81,9-8.82,14.66-11.68c2.4-1.21,6.64-2.05,8.5,0.22c1.56,1.91,2.32,3.97,3.04,6.32c1.28,4.23,1.45,8.99,1.1,13.38
				c-1.92,24.66-9.4,48.37-15.04,72.3c8.49-23.28,16.43-46.86,21.24-71.22C576.15,314.55,578.26,302.15,575.51,290.14z"/>
			<path class="st1" d="M591.03,316.17c0.07-3.23,0.07-6.48,0.11-9.71c0.59-21.54,9.24-41.81,19.28-60.53
				c-10.7,9.82-18.08,22.44-23.16,35.96l0.01-0.06c-9.67,24.44-8.8,44.55-8.8,44.55c3.5-0.96,7.38-2.2,11.16-2.46
				c0,0,13.5-0.57,11.36,15.11c-1.26,8.48-6,16.76-8.98,24.64c4.08-4.61,7.9-9.49,11.19-14.7c4.49-7.07,8.17-15.79,5.02-24.14
				C604.18,319.39,597.52,317.03,591.03,316.17z"/>
		</g>
		<g>
			<circle class="st1" cx="522.18" cy="351.14" r="5.92"/>
			<path class="st1" d="M521.75,363.85c-1.05-3.6-5.54-2.91-7.71-0.83c-6.58,5.29-11.61,12.28-16.1,19.37
				c3.39-2.61,6.16-6.04,10.04-8c1.64-0.83,4.55-1.41,5.82,0.15c1.07,1.31,1.59,2.72,2.08,4.33c0.88,2.9,0.99,6.15,0.76,9.16
				c-1.31,16.89-6.43,33.13-10.3,49.51c5.82-15.94,11.26-32.09,14.55-48.78C522.19,380.56,523.64,372.07,521.75,363.85z"/>
			<path class="st1" d="M532.38,381.67c0.05-2.21,0.05-4.43,0.08-6.65c0.41-14.75,6.33-28.64,13.21-41.46
				c-7.33,6.73-12.38,15.37-15.86,24.63l0.01-0.04c-6.62,16.74-6.03,30.51-6.03,30.51c2.4-0.66,5.06-1.51,7.65-1.69
				c0,0,9.24-0.39,7.78,10.35c-0.86,5.81-4.11,11.48-6.15,16.87c2.79-3.16,5.41-6.5,7.66-10.07c3.07-4.84,5.59-10.81,3.44-16.53
				C541.39,383.88,536.83,382.26,532.38,381.67z"/>
		</g>
		<g>
			<circle class="st1" cx="471.72" cy="417.93" r="3.99"/>
			<path class="st1" d="M471.43,426.5c-0.71-2.43-3.73-1.96-5.2-0.56c-4.44,3.57-7.83,8.28-10.85,13.06
				c2.29-1.76,4.16-4.07,6.77-5.39c1.11-0.56,3.06-0.95,3.92,0.1c0.72,0.88,1.07,1.83,1.4,2.92c0.59,1.95,0.67,4.15,0.51,6.18
				c-0.89,11.38-4.34,22.33-6.94,33.38c3.92-10.75,7.59-21.64,9.81-32.88C471.72,437.77,472.7,432.04,471.43,426.5z"/>
			<path class="st1" d="M478.59,438.52c0.03-1.49,0.03-2.99,0.05-4.48c0.27-9.94,4.27-19.3,8.9-27.95
				c-4.94,4.54-8.35,10.36-10.69,16.6l0.01-0.03c-4.46,11.28-4.06,20.57-4.06,20.57c1.62-0.44,3.41-1.02,5.15-1.14
				c0,0,6.23-0.26,5.24,6.98c-0.58,3.91-2.77,7.74-4.14,11.38c1.88-2.13,3.65-4.38,5.16-6.79c2.07-3.26,3.77-7.29,2.32-11.14
				C484.66,440,481.59,438.91,478.59,438.52z"/>
		</g>
		<path class="st1" d="M669.32,260.07c-4.27,2.69-8.11,6.02-11.64,9.63c-6.24,4.89-12.02,10.33-17.94,15.59
			c4.22,0.23,8.45,0.61,12.65,1.13c-0.31,19.73-4.84,38.96-11.13,57.56c-0.81,2.15-20.68,54.15-57.84,100.36
			c-1.17,1.41-2.34,2.84-3.5,4.27c-0.88,1.05-13.4,14.62-18.72,20.27c-2.5,2.42-5.05,4.79-7.65,7.1
			c-8.36,7.49-16.76,14.97-26.04,21.37c-7.67,5.55-16.17,10.02-24.54,14.4c-11.96,6.25-23.23,12.24-36.75,14.51
			c-6.15,1.03-12.37,1.14-18.56,1.41c-9.11-1.28-18.4-3.65-25.73-9.48c-4.78-3.33-8-8.25-11.89-12.48
			c6.57,13.78,19.79,24.18,34.83,27.01c4.47,1.11,9.05,1.6,13.65,1.63l-0.06,0.02c0,0,73.76,5.35,155.84-102.19l0,0
			c3.63-4.56,7.15-9.2,10.51-13.95c4.12-5.68,8.1-11.44,11.88-17.35c7.93-12.5,15.45-25.29,21.79-38.67
			c11.51-23.5,20.45-48.41,24.98-74.24c3.09,0.21,6.19,0.41,9.31,0.61C685.56,278.61,677.11,269.61,669.32,260.07z"/>
	</g>
</g>
</svg>
