<?xml version="1.0" encoding="UTF-8"?>
<svg width="300px" height="109px" viewBox="0 0 300 109" version="1.1" xmlns="http://www.w3.org/2000/svg" xmlns:xlink="http://www.w3.org/1999/xlink">
    <title>DC Metrics</title>
    <g id="Page-1" stroke="none" stroke-width="1" fill="none" fill-rule="evenodd">
        <g id="DC-Metrics" fill-rule="nonzero">
            <g id="Group" transform="translate(106.000000, 39.000000)">
                <g transform="translate(0.000000, 55.000000)" fill="#808080">
                    <path d="M15.525,10.885 C15.525,12.055 14.8,12.945 13.345,13.555 C12.32,14.02 11.085,14.25 9.64,14.25 L5.97,14.25 C2.25,14.25 0.33,13.22 0.21,11.16 C0.185,10.795 0.175,10.315 0.175,9.725 C0.175,8.53 0.2,7.56 0.245,6.805 C0.38,4.54 2.28,3.405 5.935,3.405 L13.12,3.405 L13.12,1.27 C13.12,0.67 13.415,0.37 14.01,0.37 C14.435,0.37 14.78,0.4 15.035,0.46 C15.36,0.575 15.525,0.845 15.525,1.27 L15.525,10.885 Z M13.115,10.84 L13.115,5.425 L5.875,5.425 C3.725,5.425 2.645,5.9 2.645,6.85 L2.645,10.725 C2.645,11.43 3.05,11.89 3.865,12.095 C4.215,12.185 4.905,12.23 5.93,12.23 L9.395,12.23 C11.88,12.23 13.115,11.765 13.115,10.84 Z" id="Shape"></path>
                    <path d="M39.535,13.345 C39.535,13.945 39.16,14.245 38.415,14.245 L29.505,14.245 C27.795,14.245 26.565,14.08 25.81,13.755 C24.515,13.24 23.87,12.3 23.87,10.94 L23.87,6.63 C23.87,4.415 25.58,3.31 29,3.31 L38.535,3.31 C39.16,3.31 39.47,3.65 39.47,4.325 C39.47,5 39.16,5.34 38.535,5.34 L29.17,5.34 C27.24,5.34 26.275,5.745 26.275,6.56 L26.275,10.835 C26.275,11.765 27.375,12.225 29.57,12.225 L38.625,12.225 C39.235,12.23 39.535,12.6 39.535,13.345 Z" id="Path"></path>
                    <path d="M82.12,13.345 C82.12,13.945 81.825,14.245 81.23,14.245 C80.635,14.245 80.29,14.22 80.19,14.165 C79.865,14.05 79.7,13.775 79.7,13.345 L79.7,6.605 C79.7,5.74 78.675,5.305 76.63,5.305 L76.31,5.305 L76.16,5.305 C76.075,5.305 76.03,5.31 76.025,5.315 C75.045,5.355 74.395,5.42 74.075,5.52 C73.36,5.735 73.005,6.195 73.005,6.91 L73.005,13.34 C73.005,13.775 72.84,14.045 72.515,14.16 C72.415,14.215 72.07,14.24 71.475,14.24 C70.875,14.24 70.575,13.94 70.575,13.34 L70.575,6.885 C70.575,6.24 70.345,5.8 69.88,5.575 C69.56,5.415 69.04,5.335 68.315,5.335 L68.02,5.335 L67.825,5.335 L67.72,5.335 C67.66,5.335 67.625,5.33 67.615,5.325 C67.465,5.315 67.33,5.31 67.215,5.31 C67.1,5.305 67.005,5.305 66.93,5.305 C64.86,5.305 63.83,5.745 63.83,6.63 L63.83,13.35 C63.83,13.785 63.67,14.055 63.35,14.17 C63.25,14.225 62.905,14.25 62.31,14.25 C61.715,14.25 61.42,13.95 61.42,13.35 L61.42,6.885 C61.42,4.505 63.17,3.315 66.665,3.315 C67.355,3.315 67.92,3.32 68.36,3.33 C68.795,3.34 69.12,3.36 69.335,3.395 C70.24,3.51 71.075,3.795 71.845,4.25 C72.53,3.825 73.375,3.545 74.375,3.415 C74.905,3.345 75.8,3.315 77.055,3.315 C80.425,3.315 82.105,4.505 82.105,6.885 L82.105,13.345 L82.12,13.345 Z" id="Path"></path>
                    <path d="M105.54,8.97 C105.54,9.63 105.315,9.96 104.865,9.96 L92.9,9.96 L92.9,10.04 C92.9,11.075 93.51,11.74 94.725,12.035 C94.99,12.095 95.375,12.145 95.885,12.18 C96.39,12.215 97.035,12.23 97.82,12.23 C98.415,12.23 98.71,12.605 98.71,13.35 C98.71,13.95 98.415,14.25 97.82,14.25 C97.015,14.25 96.355,14.245 95.84,14.235 C95.325,14.225 94.935,14.205 94.67,14.17 C93.345,14.035 92.375,13.72 91.75,13.235 C90.86,12.545 90.415,11.73 90.415,10.795 L90.415,6.77 C90.415,5.51 91.1,4.575 92.47,3.965 C93.405,3.525 94.645,3.305 96.19,3.305 L100.685,3.305 C101.945,3.305 102.995,3.515 103.82,3.93 C104.97,4.46 105.54,5.265 105.54,6.335 L105.54,8.97 L105.54,8.97 Z M103.19,7.875 L103.19,6.53 C103.19,5.71 101.56,5.3 98.295,5.3 C96.37,5.3 95.05,5.37 94.34,5.505 C93.33,5.695 92.825,6.065 92.825,6.625 L92.825,7.88 L103.19,7.88 L103.19,7.875 Z" id="Shape"></path>
                    <path d="M122.185,4.52 C122.185,5.115 121.885,5.41 121.285,5.41 L117.475,5.41 L117.475,13.35 C117.475,13.95 117.18,14.25 116.585,14.25 C116,14.25 115.655,14.225 115.56,14.17 C115.235,14.05 115.07,13.775 115.07,13.35 L115.07,5.41 C114.75,5.41 114.49,5.405 114.29,5.395 C114.09,5.385 113.945,5.37 113.86,5.355 C113.48,5.225 113.29,4.91 113.29,4.41 C113.29,3.91 113.48,3.595 113.86,3.465 C113.945,3.45 114.085,3.435 114.29,3.425 C114.49,3.415 114.75,3.41 115.07,3.41 L115.07,1.255 C115.07,0.66 115.365,0.365 115.96,0.365 C116.545,0.365 116.89,0.39 116.985,0.445 C117.31,0.56 117.475,0.83 117.475,1.255 L117.475,3.41 L121.285,3.41 C121.885,3.4 122.185,3.775 122.185,4.52 Z" id="Path"></path>
                    <path d="M137.05,4.45 C137.05,5.05 136.69,5.35 135.98,5.35 C135.88,5.35 135.74,5.345 135.55,5.335 C135.365,5.325 135.22,5.32 135.12,5.32 C133.27,5.32 132.35,5.78 132.35,6.7 L132.35,13.35 C132.35,13.79 132.185,14.07 131.85,14.185 C131.715,14.23 131.365,14.255 130.8,14.255 C130.23,14.255 129.945,13.95 129.945,13.345 L129.945,6.7 C129.945,5.27 130.68,4.3 132.145,3.79 C133.04,3.47 134.375,3.31 136.15,3.31 C136.75,3.31 137.05,3.69 137.05,4.45 Z" id="Path"></path>
                    <path d="M148.39,1.815 C148.39,2.21 148.225,2.52 147.89,2.75 C147.6,2.95 147.245,3.045 146.83,3.045 C146.41,3.045 146.06,2.945 145.77,2.75 C145.435,2.52 145.27,2.21 145.27,1.815 C145.27,1.42 145.435,1.11 145.77,0.88 C146.06,0.68 146.415,0.585 146.83,0.585 C147.25,0.585 147.6,0.685 147.89,0.88 C148.225,1.11 148.39,1.42 148.39,1.815 Z M148.06,13.345 C148.06,13.945 147.76,14.245 147.16,14.245 C146.575,14.245 146.23,14.22 146.135,14.165 C145.825,14.05 145.665,13.775 145.665,13.345 L145.665,4.165 C145.665,3.57 145.965,3.275 146.565,3.275 C147.145,3.275 147.48,3.3 147.58,3.355 C147.9,3.47 148.06,3.74 148.06,4.165 L148.06,13.345 Z" id="Shape"></path>
                    <path d="M172.21,13.345 C172.21,13.945 171.835,14.245 171.09,14.245 L162.185,14.245 C160.475,14.245 159.24,14.08 158.49,13.755 C157.195,13.24 156.55,12.3 156.55,10.94 L156.55,6.63 C156.55,4.415 158.26,3.31 161.68,3.31 L171.215,3.31 C171.84,3.31 172.15,3.65 172.15,4.325 C172.15,5 171.84,5.34 171.215,5.34 L161.85,5.34 C159.92,5.34 158.955,5.745 158.955,6.56 L158.955,10.835 C158.955,11.765 160.055,12.225 162.25,12.225 L171.305,12.225 C171.91,12.23 172.21,12.6 172.21,13.345 Z" id="Path"></path>
                    <path d="M194,11.125 C194,13.21 192.41,14.25 189.235,14.25 L181.09,14.25 C180.495,14.25 180.2,13.95 180.2,13.35 C180.2,12.605 180.495,12.23 181.09,12.23 L189.245,12.23 C190.75,12.23 191.505,11.86 191.505,11.125 L191.505,10.715 C191.505,10.055 190.82,9.725 189.45,9.725 L185.54,9.725 C181.945,9.725 180.145,8.72 180.145,6.715 L180.145,6.12 C180.145,4.79 181.05,3.94 182.86,3.565 C183.225,3.48 183.76,3.42 184.46,3.375 C185.165,3.335 186.045,3.31 187.11,3.31 C187.71,3.31 188.01,3.69 188.01,4.45 C188.01,5.045 187.71,5.34 187.11,5.34 L185.375,5.34 C184.47,5.34 183.925,5.35 183.745,5.375 C182.945,5.48 182.545,5.73 182.545,6.115 L182.545,6.685 C182.545,7.34 183.545,7.665 185.545,7.665 L189.535,7.665 C192.51,7.665 193.995,8.65 193.995,10.62 L193.995,11.125 L194,11.125 Z" id="Path"></path>
                </g>
                <g fill="#29A9E1">
                    <path d="M54.98,37.705 C54.98,41.885 52.385,45.06 47.205,47.235 C43.54,48.89 39.13,49.72 33.97,49.72 L20.86,49.72 C7.585,49.72 0.73,46.04 0.295,38.685 C0.215,37.38 0.175,35.67 0.175,33.555 C0.175,29.295 0.255,25.82 0.42,23.13 C0.91,15.04 7.68,10.995 20.74,10.995 L46.395,10.995 L46.395,3.38 C46.395,1.235 47.455,0.165 49.57,0.165 C51.09,0.165 52.31,0.275 53.235,0.49 C54.4,0.895 54.985,1.86 54.985,3.38 L54.985,37.705 L54.98,37.705 Z M46.39,37.54 L46.39,18.2 L20.535,18.2 C12.85,18.2 9.01,19.895 9.01,23.29 L9.01,37.135 C9.01,39.66 10.46,41.29 13.365,42.02 C14.615,42.345 17.07,42.51 20.735,42.51 L33.115,42.51 C41.965,42.51 46.39,40.855 46.39,37.54 Z" id="Shape"></path>
                    <path d="M115.695,46.5 C115.695,48.645 114.365,49.715 111.705,49.715 L79.905,49.715 C73.795,49.715 69.4,49.13 66.71,47.965 C62.095,46.12 59.79,42.765 59.79,37.905 L59.79,22.515 C59.79,14.615 65.9,10.665 78.115,10.665 L112.155,10.665 C114.38,10.665 115.495,11.875 115.495,14.29 C115.495,16.705 114.38,17.915 112.155,17.915 L78.725,17.915 C71.83,17.915 68.38,19.37 68.38,22.27 L68.38,37.54 C68.38,40.85 72.3,42.51 80.15,42.51 L112.48,42.51 C114.625,42.51 115.695,43.84 115.695,46.5 Z" id="Path"></path>
                    <path d="M194,46.5 C194,48.645 192.94,49.715 190.825,49.715 C188.71,49.715 187.47,49.62 187.12,49.43 C185.955,49.025 185.37,48.045 185.37,46.5 L185.37,22.435 C185.37,19.34 181.72,17.795 174.415,17.795 L173.275,17.795 L172.745,17.795 C172.445,17.795 172.285,17.81 172.255,17.835 C168.755,17.97 166.43,18.215 165.29,18.57 C162.74,19.33 161.46,20.985 161.46,23.54 L161.46,46.5 C161.46,48.045 160.875,49.025 159.71,49.43 C159.355,49.62 158.12,49.715 156.005,49.715 C153.86,49.715 152.79,48.645 152.79,46.5 L152.79,23.45 C152.79,21.145 151.96,19.58 150.305,18.765 C149.165,18.195 147.305,17.91 144.725,17.91 L143.665,17.91 L142.975,17.91 L142.61,17.91 C142.395,17.91 142.27,17.895 142.245,17.87 C141.7,17.845 141.225,17.825 140.82,17.81 C140.415,17.795 140.075,17.79 139.8,17.79 C132.415,17.79 128.725,19.365 128.725,22.515 L128.725,46.5 C128.725,48.045 128.155,49.025 127.015,49.43 C126.66,49.62 125.425,49.715 123.31,49.715 C121.195,49.715 120.135,48.645 120.135,46.5 L120.135,23.41 C120.135,14.915 126.38,10.665 138.865,10.665 C141.335,10.665 143.35,10.685 144.91,10.725 C146.47,10.765 147.63,10.84 148.39,10.95 C151.62,11.355 154.605,12.375 157.35,14.005 C159.795,12.485 162.805,11.495 166.39,11.03 C168.29,10.785 171.48,10.665 175.96,10.665 C187.985,10.665 194,14.915 194,23.41 L194,46.5 L194,46.5 Z" id="Path"></path>
                </g>
            </g>
            <g id="Group">
                <path d="M61.71,102.555 C60.25,102.815 58.935,103.56 57.785,104.47 C59.225,104.165 60.62,103.57 61.71,102.555 Z" id="Path" fill="#29A9E1"></path>
                <path d="M17.925,103.71 C19.28,104.84 20.955,105.44 22.71,105.56 C21.54,104.115 19.63,103.955 17.925,103.71 Z" id="Path" fill="#29A9E1"></path>
                <path d="M52.305,105.595 C54.055,105.475 55.775,104.935 57.08,103.72 C55.37,103.99 53.52,104.2 52.305,105.595 Z" id="Path" fill="#29A9E1"></path>
                <path d="M27.595,107.115 C28.67,107.82 29.995,107.805 31.23,107.815 C30.11,107.225 28.845,107.045 27.595,107.115 Z" id="Path" fill="#29A9E1"></path>
                <path d="M44.11,107.81 C45.28,107.83 46.455,107.67 47.585,107.345 C46.405,106.95 45.13,107.115 44.11,107.81 Z" id="Path" fill="#29A9E1"></path>
                <path d="M51.16,104.78 C49.28,105.22 46.71,104.49 45.575,106.445 C47.495,106.23 49.835,106.515 51.16,104.78 Z" id="Path" fill="#29A9E1"></path>
                <path d="M29.61,106.43 C28.385,104.495 25.77,105.215 23.855,104.79 C25.315,106.445 27.61,106.265 29.61,106.43 Z" id="Path" fill="#29A9E1"></path>
                <path d="M36.17,106.715 L36.47,106.71 C36.425,106.455 36.34,105.945 36.3,105.69 C34.565,105.625 32.83,105.54 31.095,105.53 C31.595,106.37 32.39,106.885 33.4,106.695 C34.325,106.725 35.245,106.725 36.17,106.715 Z" id="Path" fill="#29A9E1"></path>
                <path d="M38.77,106.765 C39.865,106.74 40.96,106.725 42.055,106.685 C42.365,106.67 42.975,106.65 43.28,106.635 C43.475,106.255 43.67,105.875 43.87,105.505 C42.235,105.575 40.6,105.64 38.96,105.635 C38.915,105.92 38.82,106.485 38.77,106.765 Z" id="Path" fill="#29A9E1"></path>
                <path d="M22.825,106.43 C23.18,107.07 24.46,107.325 25.18,107.095 C25.005,106.285 23.515,106.075 22.825,106.43 Z" id="Path" fill="#29A9E1"></path>
                <path d="M55.435,105.955 C56.02,106.2 57.025,105.69 57.39,105.15 C56.835,104.69 55.715,105.34 55.435,105.955 Z" id="Path" fill="#29A9E1"></path>
                <path d="M50.755,106.42 C50.465,106.435 49.395,106.955 50.11,107.2 C50.84,107.235 51.69,107.07 52.225,106.555 C52.045,106.005 51.155,106.35 50.755,106.42 Z" id="Path" fill="#29A9E1"></path>
                <path d="M33.39,107.89 C34.305,108.31 35.545,108.34 36.48,107.95 C36.43,107.88 36.33,107.73 36.28,107.655 C35.31,107.56 34.305,107.52 33.39,107.89 Z" id="Path" fill="#29A9E1"></path>
                <path d="M38.885,107.72 C39.305,108.46 41.465,108.405 41.92,107.65 C40.905,107.56 39.89,107.58 38.885,107.72 Z" id="Path" fill="#29A9E1"></path>
                <g>
                    <path d="M67.13,3.65 C68.79,3.41 69.035,1.405 70.065,0.35 C69.53,1.705 68.855,2.995 68.28,4.335 C69.975,4.45 71.59,3.79 73.28,3.715 C71.78,4.15 70.245,4.515 68.835,5.2 C69.35,6.555 71.285,6.77 72.395,7.6 C70.99,7.24 69.66,6.635 68.265,6.235 C68.43,7.705 68.86,9.125 69.15,10.575 C68.58,9.385 68.22,8.11 67.635,6.93 C67.47,6.895 67.155,6.825 66.995,6.79 C65.965,8.21 65.245,9.825 64.275,11.285 C65.01,9.53 65.97,7.86 66.42,5.99 C65.01,6.22 63.615,6.57 62.185,6.685 C63.51,6.14 65.035,5.98 66.145,4.995 C64.755,4.04 63.27,3.23 61.88,2.29 C63.475,2.965 64.99,3.835 66.655,4.34 C66.44,3.105 66.165,1.87 66.175,0.61 C66.535,1.61 66.825,2.635 67.13,3.65 Z" id="Path" fill="#808080"></path>
                    <path d="M67.735,34.98 C69.34,35.05 70.945,35.135 72.56,35.225 C71.39,38.865 70.035,42.465 68.37,45.91 C68.08,42.275 68.06,38.62 67.735,34.98 Z" id="Path" fill="#29A9E1"></path>
                    <path d="M87.795,36.695 C88.98,36.855 90.175,37.01 91.365,37.18 C91.835,40.495 92.12,43.84 92.235,47.19 C91.025,47.17 89.815,47.155 88.605,47.13 C88.475,43.645 88.145,40.165 87.795,36.695 Z" id="Path" fill="#29A9E1"></path>
                    <path d="M88.655,49.935 C89.845,49.93 91.04,49.91 92.235,49.89 C92.165,53.315 91.785,56.72 91.335,60.115 C90.14,60.285 88.94,60.445 87.75,60.615 C88.105,57.055 88.455,53.5 88.655,49.935 Z" id="Path" fill="#29A9E1"></path>
                    <path d="M72.96,86.615 C74.54,86.195 76.12,85.78 77.72,85.405 C76.605,87.3 75.43,89.17 74.155,90.965 C72.755,91.335 71.365,91.74 69.965,92.12 C70.93,90.265 71.98,88.46 72.96,86.615 Z" id="Path" fill="#29A9E1"></path>
                    <path d="M12.31,88.35 C15.385,88.67 18.465,88.99 21.55,89.25 C21.86,90.605 22.16,91.95 22.455,93.31 C19.97,94.425 17.245,94.575 14.61,93.95 C13.805,92.095 13.02,90.235 12.31,88.35 Z" id="Path" fill="#29A9E1"></path>
                    <path d="M50.02,97.16 C52.61,96.95 55.185,96.565 57.78,96.35 C57.1,97.47 56.425,98.59 55.76,99.715 C53.46,100.045 51.16,100.31 48.85,100.52 C49.24,99.395 49.63,98.275 50.02,97.16 Z" id="Path" fill="#29A9E1"></path>
                    <path d="M81.775,47.055 C83.265,43.925 84.7,40.77 86.055,37.58 C86.365,40.74 86.645,43.91 86.745,47.085 C85.085,47.09 83.43,47.09 81.775,47.055 Z" id="Path" fill="#29A9E1"></path>
                    <path d="M60.5,95.835 C62.355,95.54 64.2,95.165 66.04,94.795 C65.19,96.005 64.26,97.16 63.315,98.3 C61.665,98.655 60.005,98.985 58.345,99.3 C59.04,98.13 59.755,96.97 60.5,95.835 Z" id="Path" fill="#29A9E1"></path>
                    <path d="M92.785,37.49 C93.48,37.64 94.185,37.79 94.895,37.94 C95.27,41.045 95.62,44.155 95.725,47.28 C95.005,47.255 94.295,47.23 93.585,47.21 C93.47,43.955 93.145,40.72 92.785,37.49 Z" id="Path" fill="#29A9E1"></path>
                    <path d="M95.85,38.015 C96.65,38.67 96.585,39.735 96.715,40.665 C96.91,42.985 97.27,45.31 97.09,47.65 C96.36,47.055 96.535,46.06 96.425,45.235 C96.29,42.825 95.94,40.425 95.85,38.015 Z" id="Path" fill="#29A9E1"></path>
                    <path d="M96.41,52 C96.52,51.12 96.32,50.03 97.175,49.46 C97.19,51.83 96.92,54.19 96.695,56.55 C96.56,57.5 96.61,58.585 95.81,59.28 C95.91,56.845 96.305,54.435 96.41,52 Z" id="Path" fill="#29A9E1"></path>
                    <path d="M93.21,69.485 C94.045,66.645 94.42,63.585 95.785,60.945 C95.755,62.73 95.125,64.425 94.67,66.14 C94.305,67.295 94.11,68.59 93.21,69.485 Z" id="Path" fill="#29A9E1"></path>
                    <path d="M89.46,78.425 C90.295,75.95 91.335,73.465 92.765,71.28 C92.025,73.795 90.825,76.19 89.46,78.425 Z" id="Path" fill="#29A9E1"></path>
                    <path d="M81.025,88.195 C82.78,86.03 83.65,82.87 86.435,81.77 C84.9,84.085 83.72,87 81.025,88.195 Z" id="Path" fill="#29A9E1"></path>
                    <path d="M76.345,93.79 C77.575,92.1 78.895,90.315 80.865,89.45 C79.53,91.055 78.185,92.735 76.345,93.79 Z" id="Path" fill="#29A9E1"></path>
                    <path d="M71.81,95.8 C73.245,93.88 74.755,91.675 77.315,91.285 C75.745,93.075 74.24,95.16 71.81,95.8 Z" id="Path" fill="#29A9E1"></path>
                    <path d="M67.225,100.005 C68.365,98.605 69.825,97.455 71.555,96.875 C70.34,98.2 68.875,99.29 67.225,100.005 Z" id="Path" fill="#29A9E1"></path>
                    <path d="M61.835,101.625 C63.16,99.88 65.1,98.81 67.275,98.525 C65.8,100.075 63.985,101.3 61.835,101.625 Z" id="Path" fill="#29A9E1"></path>
                    <path d="M53.595,49.895 C57.565,49.92 61.54,49.845 65.51,49.875 C65.44,50.85 65.48,51.89 64.915,52.74 C63.095,55.98 61.09,59.115 58.985,62.175 C57.07,62.235 55.16,62.285 53.25,62.345 C53.395,58.195 53.54,54.045 53.595,49.895 Z" id="Path" fill="#29A9E1"></path>
                    <path d="M80.845,50.045 C82.805,50.02 84.765,50 86.73,49.995 C86.64,53.645 86.325,57.29 85.83,60.905 C83.915,61.08 82.005,61.25 80.095,61.41 C80.42,57.63 80.75,53.845 80.845,50.045 Z" id="Path" fill="#29A9E1"></path>
                    <path d="M70.7,64.98 C72.89,64.89 75.075,64.705 77.265,64.545 C76.76,67.75 76.04,70.915 75.325,74.075 C72.735,74.47 70.135,74.76 67.53,74.995 C67.96,72.745 68.265,70.48 68.655,68.22 C68.86,66.905 69.9,65.975 70.7,64.98 Z" id="Path" fill="#29A9E1"></path>
                    <path d="M37.61,65.735 C41.72,65.705 45.83,65.605 49.945,65.615 C49.685,68.16 49.56,70.715 49.345,73.26 C49.335,74.375 48.44,75.375 47.465,75.795 C44.175,76.005 40.88,76.04 37.585,76.08 C37.575,72.63 37.545,69.185 37.61,65.735 Z" id="Path" fill="#29A9E1"></path>
                    <path d="M66.91,77.825 C69.435,77.48 71.96,77.145 74.495,76.895 C73.615,79.535 72.695,82.16 71.645,84.735 C69.34,85.145 67.035,85.53 64.72,85.845 C65.48,83.18 66.25,80.52 66.91,77.825 Z" id="Path" fill="#29A9E1"></path>
                    <path d="M58.195,79.465 C59.645,77.76 62.15,78.525 64.095,78.065 C63.535,80.835 62.79,83.56 61.91,86.25 C58.71,86.51 55.52,86.91 52.32,87.045 C52.615,86.07 52.435,84.815 53.295,84.105 C54.95,82.58 56.595,81.05 58.195,79.465 Z" id="Path" fill="#29A9E1"></path>
                    <path d="M22.955,78.735 C26.735,78.88 30.53,78.815 34.3,79.035 C34.46,81.77 34.37,84.51 34.355,87.24 C30.94,87.205 27.525,87.105 24.11,86.99 C23.63,84.25 23.31,81.49 22.955,78.735 Z" id="Path" fill="#29A9E1"></path>
                    <path d="M63.825,88.31 C66.035,87.905 68.24,87.455 70.485,87.27 C69.52,89.14 68.51,90.99 67.41,92.775 C65.435,93.105 63.475,93.505 61.51,93.865 C62.3,92.02 63.105,90.18 63.825,88.31 Z" id="Path" fill="#29A9E1"></path>
                    <path d="M45.52,90.32 C46.475,89.59 47.735,89.825 48.86,89.715 C48.625,91.62 48.17,93.485 47.745,95.35 C44.81,95.535 41.87,95.615 38.925,95.64 C38.88,94.305 40.205,93.87 41.115,93.25 C42.64,92.355 44.055,91.305 45.52,90.32 Z" id="Path" fill="#29A9E1"></path>
                    <path d="M28.58,99.385 C31.06,98.52 33.47,97.135 36.2,97.625 C36.215,98.75 36.23,99.885 36.25,101.015 C33.82,100.97 31.39,100.85 28.965,100.73 C28.83,100.275 28.705,99.83 28.58,99.385 Z" id="Path" fill="#29A9E1"></path>
                    <path d="M93.605,49.87 C94.3,49.845 95.005,49.82 95.705,49.8 C95.635,52.99 95.22,56.155 94.875,59.325 C94.16,59.495 93.44,59.665 92.73,59.835 C93.14,56.525 93.435,53.2 93.605,49.87 Z" id="Path" fill="#29A9E1"></path>
                    <path d="M72.835,61.905 C74.76,59.185 76.39,56.27 78.315,53.545 C78.205,56.25 77.97,58.955 77.65,61.645 C76.04,61.72 74.435,61.82 72.835,61.905 Z" id="Path" fill="#29A9E1"></path>
                    <path d="M84.245,74.84 C85.375,74.52 86.5,74.19 87.635,73.865 C86.535,76.3 85.61,78.835 84.22,81.125 C83.285,81.795 82.105,81.985 81.04,82.365 C82.17,79.885 83.225,77.37 84.245,74.84 Z" id="Path" fill="#29A9E1"></path>
                    <path d="M92.23,62.415 C92.935,62.2 93.635,61.975 94.35,61.765 C93.795,64.545 92.975,67.27 92.11,69.97 C91.415,70.27 90.72,70.565 90.035,70.87 C90.805,68.065 91.635,65.27 92.23,62.415 Z" id="Path" fill="#29A9E1"></path>
                    <path d="M87.265,63.37 C88.445,63.135 89.625,62.91 90.81,62.675 C90.305,65.625 89.41,68.49 88.555,71.35 C87.395,71.685 86.235,72 85.07,72.32 C85.87,69.35 86.63,66.375 87.265,63.37 Z" id="Path" fill="#29A9E1"></path>
                    <path d="M37.58,78.95 C39.935,78.945 42.28,78.88 44.635,78.87 C42.32,80.96 39.955,83.005 37.475,84.9 C37.455,82.915 37.415,80.93 37.58,78.95 Z" id="Path" fill="#29A9E1"></path>
                    <path d="M2.91,86.855 C5.145,87.225 7.375,87.62 9.61,87.99 C10.365,89.86 11.15,91.72 11.975,93.565 C9.985,93.215 8.005,92.805 6.015,92.475 C4.855,90.675 3.86,88.775 2.91,86.855 Z" id="Path" fill="#29A9E1"></path>
                    <path d="M79.655,64.335 C81.555,64.085 83.46,63.885 85.36,63.615 C84.81,66.72 84.005,69.77 83.125,72.795 C81.31,73.125 79.5,73.45 77.685,73.735 C78.405,70.615 79.07,67.485 79.655,64.335 Z" id="Path" fill="#29A9E1"></path>
                    <path d="M76.9,76.455 C78.67,76.075 80.435,75.675 82.235,75.46 C81.26,78.02 80.2,80.545 79.015,83.015 C77.37,83.45 75.715,83.86 74.06,84.25 C75.07,81.675 76,79.07 76.9,76.455 Z" id="Path" fill="#29A9E1"></path>
                    <path d="M51.88,89.53 C54.96,89.3 58.03,88.96 61.105,88.69 C60.41,90.565 59.64,92.41 58.85,94.25 C56.105,94.63 53.345,94.895 50.59,95.175 C51.03,93.295 51.48,91.415 51.88,89.53 Z" id="Path" fill="#29A9E1"></path>
                    <path d="M38.995,97.68 C41.73,97.555 44.465,97.495 47.205,97.39 C46.86,98.51 46.51,99.64 46.14,100.755 C43.765,100.845 41.395,100.925 39.025,101.055 C38.99,99.93 38.99,98.805 38.995,97.68 Z" id="Path" fill="#29A9E1"></path>
                    <path d="M53.055,65.52 C54.225,65.45 55.405,65.41 56.585,65.395 C55.41,67.085 54.1,68.68 52.74,70.22 C52.81,68.65 52.95,67.085 53.055,65.52 Z" id="Path" fill="#29A9E1"></path>
                    <path d="M62.035,75.465 C63.105,74.22 64.165,72.965 65.34,71.815 C65.16,72.97 64.955,74.12 64.765,75.27 C63.85,75.34 62.94,75.4 62.035,75.465 Z" id="Path" fill="#29A9E1"></path>
                    <path d="M89.12,73.295 C89.82,72.98 90.525,72.665 91.235,72.36 C90.26,74.495 89.375,76.675 88.245,78.74 C87.82,79.725 86.74,80.055 85.875,80.535 C86.975,78.135 88.135,75.755 89.12,73.295 Z" id="Path" fill="#29A9E1"></path>
                    <path d="M79.235,85.63 C79.92,84.27 81.59,84.1 82.86,83.58 C81.87,85.205 80.845,86.815 79.7,88.33 C78.97,89.445 77.585,89.69 76.42,90.105 C77.365,88.62 78.305,87.13 79.235,85.63 Z" id="Path" fill="#29A9E1"></path>
                    <path d="M24.495,89.425 C26.41,89.475 28.32,89.57 30.23,89.685 C28.55,90.645 26.83,91.52 25.05,92.275 C24.86,91.325 24.675,90.375 24.495,89.425 Z" id="Path" fill="#29A9E1"></path>
                    <path d="M68.46,94.325 C69.72,93.685 71.145,93.46 72.5,93.07 C71.505,94.26 70.575,95.54 69.345,96.51 C68.265,97.105 67.02,97.32 65.845,97.665 C66.705,96.54 67.475,95.345 68.46,94.325 Z" id="Path" fill="#29A9E1"></path>
                    <path d="M36.32,104.555 C36.305,103.89 36.29,103.23 36.28,102.575 C34.075,102.485 31.88,102.41 29.68,102.335 C29.935,102.99 30.195,103.65 30.465,104.31 C32.41,104.385 34.365,104.47 36.32,104.555 Z" id="Path" fill="#29A9E1"></path>
                    <path d="M61.595,100.055 C60.08,100.33 58.575,100.66 57.055,100.96 C56.5,101.625 55.95,102.305 55.435,103.005 C56.685,102.775 57.995,102.675 59.17,102.165 C60.095,101.6 60.82,100.785 61.595,100.055 Z" id="Path" fill="#29A9E1"></path>
                    <path d="M18.39,101.45 C17.18,101.45 15.98,101.43 14.775,101.455 C16.265,102.56 18.13,102.725 19.905,103 C19.395,102.48 18.895,101.965 18.39,101.45 Z" id="Path" fill="#29A9E1"></path>
                    <path d="M22.395,103.315 C24.17,103.865 26.07,103.815 27.895,104.115 C27.56,103.43 27.23,102.755 26.9,102.08 C24.825,101.865 22.755,101.595 20.68,101.39 C21.225,102.05 21.74,102.745 22.395,103.315 Z" id="Path" fill="#29A9E1"></path>
                    <path d="M45.575,102.34 C43.375,102.4 41.18,102.5 38.98,102.55 C38.945,103.215 38.91,103.88 38.88,104.555 C40.795,104.47 42.705,104.385 44.62,104.34 C44.935,103.67 45.26,103.005 45.575,102.34 Z" id="Path" fill="#29A9E1"></path>
                    <path d="M54.475,101.4 C52.4,101.63 50.325,101.895 48.25,102.1 C47.895,102.775 47.555,103.455 47.205,104.135 C49.055,103.895 50.91,103.7 52.76,103.445 C53.325,102.765 53.9,102.085 54.475,101.4 Z" id="Path" fill="#29A9E1"></path>
                    <path d="M63.115,102.67 C63.7,102.915 64.705,102.405 65.07,101.865 C64.515,101.405 63.39,102.06 63.115,102.67 Z" id="Path" fill="#29A9E1"></path>
                    <g transform="translate(42.000000, 7.000000)" fill="#808080">
                        <circle id="Oval" cx="11.605" cy="8.295" r="2.775"></circle>
                        <path d="M11.4,14.245 C10.905,12.555 8.81,12.885 7.79,13.855 C4.71,16.335 2.35,19.605 0.255,22.925 C1.845,21.705 3.14,20.095 4.955,19.18 C5.725,18.79 7.085,18.52 7.68,19.25 C8.18,19.86 8.425,20.525 8.655,21.275 C9.065,22.63 9.12,24.155 9.01,25.565 C8.395,33.475 5.995,41.08 4.185,48.75 C6.91,41.285 9.455,33.72 11,25.91 C11.605,22.075 12.285,18.095 11.4,14.245 Z" id="Path"></path>
                        <path d="M16.38,22.595 C16.405,21.56 16.405,20.52 16.415,19.48 C16.605,12.57 19.38,6.07 22.6,0.065 C19.165,3.215 16.805,7.26 15.17,11.6 L15.175,11.58 C12.075,19.42 12.355,25.865 12.355,25.865 C13.48,25.555 14.725,25.16 15.935,25.075 C15.935,25.075 20.265,24.895 19.575,29.92 C19.17,32.64 17.65,35.295 16.695,37.82 C18,36.34 19.23,34.775 20.285,33.105 C21.725,30.84 22.905,28.04 21.895,25.365 C20.595,23.625 18.46,22.87 16.38,22.595 Z" id="Path"></path>
                    </g>
                    <g transform="translate(28.500000, 35.000000)" fill="#808080">
                        <circle id="Oval" cx="7.8" cy="5.81" r="1.9"></circle>
                        <path d="M7.66,9.885 C7.32,8.73 5.885,8.95 5.185,9.62 C3.075,11.32 1.46,13.56 0.025,15.83 C1.115,14.995 2,13.895 3.245,13.265 C3.77,13 4.705,12.815 5.11,13.315 C5.455,13.735 5.62,14.185 5.775,14.705 C6.055,15.635 6.095,16.68 6.015,17.645 C5.595,23.06 3.95,28.27 2.71,33.525 C4.575,28.415 6.32,23.23 7.375,17.88 C7.8,15.245 8.265,12.52 7.66,9.885 Z" id="Path"></path>
                        <path d="M11.07,15.6 C11.085,14.89 11.085,14.18 11.095,13.47 C11.225,8.74 13.125,4.285 15.33,0.175 C12.98,2.335 11.36,5.105 10.24,8.075 L10.245,8.06 C8.12,13.43 8.31,17.845 8.31,17.845 C9.08,17.635 9.93,17.36 10.76,17.305 C10.76,17.305 13.725,17.18 13.255,20.625 C12.98,22.49 11.94,24.305 11.285,26.035 C12.18,25.02 13.02,23.95 13.74,22.805 C14.725,21.255 15.535,19.34 14.845,17.505 C13.955,16.31 12.495,15.79 11.07,15.6 Z" id="Path"></path>
                    </g>
                    <g transform="translate(14.500000, 58.000000)" fill="#808080">
                        <circle id="Oval" cx="5.61" cy="4.23" r="1.28"></circle>
                        <path d="M5.52,6.975 C5.29,6.195 4.325,6.345 3.855,6.795 C2.435,7.94 1.345,9.45 0.375,10.985 C1.11,10.42 1.71,9.68 2.545,9.255 C2.9,9.075 3.53,8.95 3.805,9.285 C4.035,9.57 4.15,9.875 4.255,10.22 C4.445,10.845 4.47,11.55 4.42,12.2 C4.135,15.85 3.03,19.36 2.195,22.905 C3.45,19.46 4.63,15.965 5.34,12.36 C5.615,10.59 5.925,8.755 5.52,6.975 Z" id="Path"></path>
                        <path d="M7.815,10.83 C7.825,10.35 7.825,9.87 7.83,9.395 C7.92,6.205 9.2,3.205 10.685,0.43 C9.1,1.885 8.01,3.75 7.255,5.755 L7.255,5.745 C5.825,9.365 5.95,12.34 5.95,12.34 C6.47,12.2 7.045,12.015 7.605,11.975 C7.605,11.975 9.605,11.89 9.285,14.21 C9.1,15.465 8.395,16.69 7.955,17.86 C8.56,17.175 9.125,16.455 9.61,15.685 C10.275,14.64 10.82,13.35 10.355,12.11 C9.765,11.305 8.78,10.96 7.815,10.83 Z" id="Path"></path>
                    </g>
                    <path d="M83.485,11.6 C82.115,12.465 80.885,13.53 79.755,14.69 C77.755,16.26 75.9,18 74,19.69 C75.355,19.76 76.71,19.885 78.06,20.05 C77.96,26.375 76.51,32.545 74.49,38.51 C74.23,39.2 67.86,55.875 55.94,70.7 C55.565,71.155 55.19,71.61 54.82,72.07 C54.54,72.405 50.52,76.76 48.815,78.57 C48.015,79.345 47.195,80.11 46.36,80.85 C43.68,83.255 40.985,85.65 38.01,87.7 C35.55,89.48 32.825,90.915 30.14,92.32 C26.305,94.325 22.69,96.245 18.355,96.97 C16.38,97.3 14.385,97.335 12.4,97.42 C9.475,97.01 6.5,96.25 4.15,94.38 C2.615,93.31 1.585,91.735 0.335,90.375 C2.445,94.795 6.68,98.13 11.505,99.04 C12.94,99.395 14.41,99.555 15.88,99.565 L15.86,99.57 C15.86,99.57 39.515,101.285 65.84,66.795 L65.84,66.795 C67.005,65.335 68.135,63.845 69.21,62.32 C70.53,60.495 71.805,58.65 73.02,56.755 C75.565,52.745 77.975,48.645 80.01,44.355 C83.7,36.82 86.57,28.83 88.02,20.545 C89.01,20.615 90.005,20.675 91.005,20.74 C88.695,17.545 85.985,14.66 83.485,11.6 Z" id="Path" fill="#808080"></path>
                </g>
            </g>
        </g>
    </g>
</svg>