<?xml version="1.0" encoding="utf-8"?>
<!-- Generator: Adobe Illustrator 24.0.2, SVG Export Plug-In . SVG Version: 6.00 Build 0)  -->
<svg version="1.1" id="Layer_1" xmlns="http://www.w3.org/2000/svg" xmlns:xlink="http://www.w3.org/1999/xlink" x="0px" y="0px"
	 viewBox="0 0 1200 800" style="enable-background:new 0 0 1200 800;" xml:space="preserve">
<style type="text/css">
	.st0{fill:#808080;}
	.st1{fill:#29A9E1;}
</style>
<g>
	<g>
		<path class="st0" d="M377.87,524.49c0,3.21-1.99,5.65-5.97,7.31c-2.81,1.27-6.2,1.91-10.16,1.91h-10.06
			c-10.19,0-15.45-2.82-15.78-8.47c-0.06-1-0.09-2.31-0.09-3.94c0-3.27,0.06-5.94,0.19-8c0.38-6.21,5.57-9.31,15.6-9.31h19.69v-5.85
			c0-1.65,0.81-2.47,2.44-2.47c1.17,0,2.1,0.08,2.81,0.25c0.9,0.31,1.34,1.05,1.34,2.22V524.49z M371.27,524.36v-14.85h-19.85
			c-5.9,0-8.85,1.3-8.85,3.91v10.63c0,1.94,1.11,3.19,3.34,3.75c0.96,0.25,2.84,0.38,5.66,0.38h9.5
			C367.88,528.18,371.27,526.91,371.27,524.36z"/>
		<path class="st0" d="M443.68,531.24c0,1.65-1.02,2.47-3.06,2.47H416.2c-4.69,0-8.06-0.45-10.13-1.34
			c-3.54-1.42-5.31-3.99-5.31-7.72v-11.82c0-6.06,4.69-9.1,14.07-9.1h26.13c1.71,0,2.56,0.93,2.56,2.78c0,1.86-0.85,2.78-2.56,2.78
			H415.3c-5.29,0-7.94,1.12-7.94,3.34v11.72c0,2.54,3.01,3.81,9.03,3.81h24.82C442.85,528.18,443.68,529.2,443.68,531.24z"/>
		<path class="st0" d="M560.38,531.24c0,1.65-0.81,2.47-2.44,2.47c-1.63,0-2.57-0.07-2.84-0.22c-0.9-0.31-1.34-1.06-1.34-2.25
			v-18.47c0-2.37-2.8-3.56-8.41-3.56h-0.88h-0.41c-0.23,0-0.35,0.01-0.37,0.03c-2.69,0.1-4.47,0.29-5.35,0.56
			c-1.96,0.58-2.94,1.85-2.94,3.81v17.63c0,1.19-0.45,1.94-1.34,2.25c-0.27,0.15-1.22,0.22-2.84,0.22c-1.65,0-2.47-0.82-2.47-2.47
			v-17.69c0-1.77-0.64-2.97-1.91-3.59c-0.87-0.44-2.3-0.66-4.28-0.66h-0.81h-0.53h-0.28c-0.17,0-0.26-0.01-0.28-0.03
			c-0.42-0.02-0.78-0.04-1.09-0.05c-0.31-0.01-0.57-0.02-0.78-0.02c-5.67,0-8.5,1.21-8.5,3.63v18.41c0,1.19-0.44,1.94-1.31,2.25
			c-0.27,0.15-1.22,0.22-2.84,0.22c-1.63,0-2.44-0.82-2.44-2.47v-17.72c0-6.52,4.79-9.78,14.38-9.78c1.9,0,3.44,0.02,4.64,0.05
			c1.2,0.03,2.09,0.09,2.67,0.17c2.48,0.31,4.77,1.09,6.88,2.34c1.88-1.17,4.19-1.93,6.94-2.28c1.46-0.19,3.91-0.28,7.35-0.28
			c9.23,0,13.85,3.26,13.85,9.78V531.24z"/>
		<path class="st0" d="M624.57,519.24c0,1.81-0.61,2.72-1.84,2.72h-32.79v0.22c0,2.83,1.67,4.66,5,5.47
			c0.73,0.17,1.79,0.3,3.17,0.39c1.39,0.09,3.15,0.14,5.3,0.14c1.63,0,2.44,1.02,2.44,3.06c0,1.65-0.81,2.47-2.44,2.47
			c-2.21,0-4.02-0.02-5.42-0.05c-1.41-0.03-2.48-0.09-3.2-0.17c-3.63-0.37-6.29-1.23-8-2.56c-2.44-1.9-3.66-4.13-3.66-6.69v-11.03
			c0-3.46,1.88-6.02,5.63-7.69c2.56-1.21,5.96-1.81,10.19-1.81h12.32c3.46,0,6.32,0.57,8.6,1.72c3.15,1.46,4.72,3.66,4.72,6.59
			V519.24z M618.13,516.24v-3.69c0-2.25-4.47-3.38-13.41-3.38c-5.27,0-8.89,0.19-10.85,0.56c-2.77,0.52-4.16,1.54-4.16,3.06v3.44
			H618.13z"/>
		<path class="st0" d="M670.18,507.05c0,1.63-0.82,2.44-2.47,2.44h-10.44v21.75c0,1.65-0.81,2.47-2.44,2.47
			c-1.61,0-2.54-0.07-2.81-0.22c-0.9-0.33-1.34-1.08-1.34-2.25v-21.75c-0.88,0-1.59-0.02-2.14-0.05c-0.55-0.03-0.94-0.07-1.17-0.11
			c-1.04-0.35-1.56-1.22-1.56-2.59s0.52-2.24,1.56-2.59c0.23-0.04,0.62-0.08,1.17-0.11c0.55-0.03,1.27-0.05,2.14-0.05v-5.91
			c0-1.63,0.81-2.44,2.44-2.44c1.61,0,2.54,0.07,2.81,0.22c0.9,0.31,1.34,1.05,1.34,2.22v5.91h10.44
			C669.36,503.98,670.18,505.01,670.18,507.05z"/>
		<path class="st0" d="M710.92,506.86c0,1.65-0.98,2.47-2.94,2.47c-0.27,0-0.66-0.02-1.17-0.05c-0.51-0.03-0.9-0.05-1.17-0.05
			c-5.06,0-7.6,1.26-7.6,3.78v18.22c0,1.21-0.46,1.97-1.38,2.28c-0.37,0.12-1.33,0.19-2.88,0.19c-1.56,0-2.34-0.83-2.34-2.5v-18.19
			c0-3.92,2.01-6.57,6.03-7.97c2.46-0.88,6.12-1.31,10.97-1.31C710.1,503.73,710.92,504.78,710.92,506.86z"/>
		<path class="st0" d="M742.01,499.64c0,1.08-0.46,1.94-1.38,2.56c-0.79,0.54-1.76,0.81-2.91,0.81c-1.15,0-2.12-0.27-2.91-0.81
			c-0.92-0.62-1.38-1.48-1.38-2.56c0-1.08,0.46-1.94,1.38-2.56c0.79-0.54,1.76-0.81,2.91-0.81c1.15,0,2.11,0.27,2.91,0.81
			C741.55,497.7,742.01,498.56,742.01,499.64z M741.1,531.24c0,1.65-0.82,2.47-2.47,2.47c-1.61,0-2.54-0.07-2.81-0.22
			c-0.85-0.31-1.28-1.06-1.28-2.25v-25.16c0-1.63,0.82-2.44,2.47-2.44c1.58,0,2.51,0.07,2.78,0.22c0.87,0.31,1.31,1.05,1.31,2.22
			V531.24z"/>
		<path class="st0" d="M807.28,531.24c0,1.65-1.02,2.47-3.06,2.47h-24.41c-4.69,0-8.06-0.45-10.13-1.34
			c-3.54-1.42-5.31-3.99-5.31-7.72v-11.82c0-6.06,4.69-9.1,14.07-9.1h26.13c1.71,0,2.56,0.93,2.56,2.78c0,1.86-0.86,2.78-2.56,2.78
			H778.9c-5.29,0-7.94,1.12-7.94,3.34v11.72c0,2.54,3.01,3.81,9.03,3.81h24.82C806.46,528.18,807.28,529.2,807.28,531.24z"/>
		<path class="st0" d="M867,525.15c0,5.71-4.36,8.56-13.07,8.56h-22.32c-1.63,0-2.44-0.82-2.44-2.47c0-2.04,0.81-3.06,2.44-3.06
			h22.35c4.13,0,6.19-1.01,6.19-3.03v-1.13c0-1.81-1.88-2.72-5.63-2.72H843.8c-9.86,0-14.78-2.75-14.78-8.25v-1.63
			c0-3.65,2.48-5.98,7.44-7c1-0.23,2.46-0.4,4.39-0.52c1.93-0.11,4.35-0.17,7.27-0.17c1.65,0,2.47,1.04,2.47,3.13
			c0,1.63-0.82,2.44-2.47,2.44h-4.75c-2.48,0-3.97,0.03-4.47,0.09c-2.19,0.29-3.28,0.97-3.28,2.03v1.56c0,1.79,2.74,2.69,8.22,2.69
			h10.94c8.15,0,12.22,2.7,12.22,8.1V525.15z"/>
	</g>
	<g>
		<path class="st1" d="M486.01,447.26c0,11.46-7.11,20.16-21.31,26.11c-10.04,4.54-22.13,6.81-36.27,6.81h-35.93
			c-36.38,0-55.17-10.08-56.36-30.24c-0.22-3.57-0.33-8.26-0.33-14.06c0-11.68,0.22-21.2,0.67-28.57
			c1.34-22.17,19.9-33.26,55.69-33.26h70.31v-20.87c0-5.88,2.9-8.82,8.7-8.82c4.17,0,7.51,0.3,10.04,0.89
			c3.2,1.12,4.8,3.76,4.8,7.92V447.26z M462.46,446.81V393.8H391.6c-21.06,0-31.58,4.65-31.58,13.95v37.94
			c0,6.92,3.98,11.38,11.94,13.39c3.42,0.89,10.16,1.34,20.2,1.34h33.93C450.33,460.43,462.46,455.89,462.46,446.81z"/>
		<path class="st1" d="M652.4,471.36c0,5.88-3.65,8.82-10.94,8.82H554.3c-16.74,0-28.79-1.6-36.16-4.8
			c-12.65-5.06-18.97-14.25-18.97-27.56v-42.18c0-21.65,16.74-32.47,50.22-32.47h93.3c6.1,0,9.15,3.31,9.15,9.93
			c0,6.62-3.05,9.93-9.15,9.93h-91.62c-18.9,0-28.35,3.98-28.35,11.94v41.85c0,9.08,10.75,13.61,32.25,13.61h88.61
			C649.46,460.43,652.4,464.07,652.4,471.36z"/>
		<path class="st1" d="M867,471.36c0,5.88-2.9,8.82-8.7,8.82c-5.8,0-9.19-0.26-10.16-0.78c-3.2-1.12-4.8-3.79-4.8-8.04v-65.95
			c0-8.48-10.01-12.72-30.02-12.72h-3.12h-1.45c-0.82,0-1.27,0.04-1.34,0.11c-9.6,0.37-15.96,1.04-19.08,2.01
			c-6.99,2.08-10.49,6.62-10.49,13.61v62.94c0,4.24-1.6,6.92-4.8,8.04c-0.97,0.52-4.35,0.78-10.15,0.78c-5.88,0-8.82-2.94-8.82-8.82
			V408.2c0-6.32-2.27-10.6-6.81-12.83c-3.13-1.56-8.22-2.34-15.29-2.34h-2.9h-1.9h-1c-0.6,0-0.93-0.04-1-0.11
			c-1.49-0.07-2.79-0.13-3.91-0.17c-1.12-0.04-2.05-0.06-2.79-0.06c-20.24,0-30.35,4.32-30.35,12.95v65.73
			c0,4.24-1.56,6.92-4.69,8.04c-0.97,0.52-4.35,0.78-10.16,0.78c-5.8,0-8.7-2.94-8.7-8.82v-63.28c0-23.29,17.11-34.93,51.33-34.93
			c6.77,0,12.29,0.06,16.57,0.17c4.28,0.11,7.46,0.32,9.54,0.61c8.85,1.12,17.04,3.91,24.55,8.37c6.7-4.17,14.95-6.88,24.77-8.15
			c5.21-0.67,13.95-1,26.23-1c32.96,0,49.44,11.64,49.44,34.93V471.36z"/>
	</g>
</g>
</svg>
